<mxfile host="app.diagrams.net" modified="2021-01-21T10:19:45.656Z" agent="5.0 (Windows)" etag="2o-dSp2KvA8crxOQTWOz" version="14.2.6" type="github">
  <diagram id="C5RBs43oDa-KdzZeNtuy" name="Page-1">
    <mxGraphModel dx="1646" dy="872" grid="1" gridSize="10" guides="1" tooltips="1" connect="1" arrows="1" fold="1" page="1" pageScale="1" pageWidth="827" pageHeight="1169" math="0" shadow="0">
      <root>
        <mxCell id="WIyWlLk6GJQsqaUBKTNV-0" />
        <mxCell id="WIyWlLk6GJQsqaUBKTNV-1" parent="WIyWlLk6GJQsqaUBKTNV-0" />
        <mxCell id="WIyWlLk6GJQsqaUBKTNV-3" value="PowerOn" style="rounded=1;whiteSpace=wrap;html=1;fontSize=12;glass=0;strokeWidth=1;shadow=0;" parent="WIyWlLk6GJQsqaUBKTNV-1" vertex="1">
          <mxGeometry x="379.93" y="80" width="120" height="40" as="geometry" />
        </mxCell>
        <mxCell id="BbhXEEFtvzZGR5gqHQGa-4" value="Calibrate" style="edgeStyle=orthogonalEdgeStyle;rounded=0;orthogonalLoop=1;jettySize=auto;html=1;exitX=0;exitY=0.5;exitDx=0;exitDy=0;entryX=1;entryY=0.5;entryDx=0;entryDy=0;" parent="WIyWlLk6GJQsqaUBKTNV-1" source="WIyWlLk6GJQsqaUBKTNV-6" target="WIyWlLk6GJQsqaUBKTNV-7" edge="1">
          <mxGeometry x="-0.4751" relative="1" as="geometry">
            <Array as="points">
              <mxPoint x="290.06" y="345" />
            </Array>
            <mxPoint as="offset" />
          </mxGeometry>
        </mxCell>
        <mxCell id="WIyWlLk6GJQsqaUBKTNV-6" value="&lt;div&gt;Initial Selection&lt;/div&gt;" style="rhombus;whiteSpace=wrap;html=1;shadow=0;fontFamily=Helvetica;fontSize=12;align=center;strokeWidth=1;spacing=6;spacingTop=-4;" parent="WIyWlLk6GJQsqaUBKTNV-1" vertex="1">
          <mxGeometry x="384.91" y="300" width="110.06" height="90" as="geometry" />
        </mxCell>
        <mxCell id="WIyWlLk6GJQsqaUBKTNV-7" value="Calibrate Mems Magnetometer" style="rounded=1;whiteSpace=wrap;html=1;fontSize=12;glass=0;strokeWidth=1;shadow=0;" parent="WIyWlLk6GJQsqaUBKTNV-1" vertex="1">
          <mxGeometry x="170" y="325" width="120" height="40" as="geometry" />
        </mxCell>
        <mxCell id="nOwS5N5TdgPbAZJw5BMm-8" style="edgeStyle=orthogonalEdgeStyle;rounded=0;orthogonalLoop=1;jettySize=auto;html=1;exitX=0.5;exitY=1;exitDx=0;exitDy=0;entryX=0.5;entryY=0;entryDx=0;entryDy=0;" parent="WIyWlLk6GJQsqaUBKTNV-1" source="BbhXEEFtvzZGR5gqHQGa-10" target="OIZMKwMvLClt6lRkhCav-0" edge="1">
          <mxGeometry relative="1" as="geometry">
            <mxPoint x="440.06" y="530" as="targetPoint" />
          </mxGeometry>
        </mxCell>
        <mxCell id="BbhXEEFtvzZGR5gqHQGa-10" value="&lt;div&gt;Configure&lt;/div&gt;&lt;div&gt;(Players, Difficulty)&lt;/div&gt;" style="rounded=1;whiteSpace=wrap;html=1;" parent="WIyWlLk6GJQsqaUBKTNV-1" vertex="1">
          <mxGeometry x="370" y="430" width="140" height="50" as="geometry" />
        </mxCell>
        <mxCell id="BbhXEEFtvzZGR5gqHQGa-11" value="Play" style="endArrow=classic;html=1;exitX=0.5;exitY=1;exitDx=0;exitDy=0;" parent="WIyWlLk6GJQsqaUBKTNV-1" source="WIyWlLk6GJQsqaUBKTNV-6" target="BbhXEEFtvzZGR5gqHQGa-10" edge="1">
          <mxGeometry x="-0.3333" width="50" height="50" relative="1" as="geometry">
            <mxPoint x="480" y="540" as="sourcePoint" />
            <mxPoint x="530" y="490" as="targetPoint" />
            <mxPoint as="offset" />
          </mxGeometry>
        </mxCell>
        <mxCell id="tKOiq6pVQDYrRC9kV3IF-2" style="edgeStyle=orthogonalEdgeStyle;rounded=0;orthogonalLoop=1;jettySize=auto;html=1;exitX=0.5;exitY=1;exitDx=0;exitDy=0;entryX=0.5;entryY=0;entryDx=0;entryDy=0;" parent="WIyWlLk6GJQsqaUBKTNV-1" source="nOwS5N5TdgPbAZJw5BMm-2" target="tKOiq6pVQDYrRC9kV3IF-0" edge="1">
          <mxGeometry relative="1" as="geometry" />
        </mxCell>
        <mxCell id="nOwS5N5TdgPbAZJw5BMm-2" value="wait For CenterPress" style="rounded=1;whiteSpace=wrap;html=1;" parent="WIyWlLk6GJQsqaUBKTNV-1" vertex="1">
          <mxGeometry x="190" y="580" width="140" height="35" as="geometry" />
        </mxCell>
        <mxCell id="nOwS5N5TdgPbAZJw5BMm-5" value="rotate Arrow" style="rounded=1;whiteSpace=wrap;html=1;" parent="WIyWlLk6GJQsqaUBKTNV-1" vertex="1">
          <mxGeometry x="200" y="720" width="120" height="50" as="geometry" />
        </mxCell>
        <mxCell id="nOwS5N5TdgPbAZJw5BMm-12" value="check Rotation?" style="rhombus;whiteSpace=wrap;html=1;" parent="WIyWlLk6GJQsqaUBKTNV-1" vertex="1">
          <mxGeometry x="220" y="905" width="80" height="80" as="geometry" />
        </mxCell>
        <mxCell id="nOwS5N5TdgPbAZJw5BMm-13" value="wait for Board Rotation - decrement Display Bars" style="rounded=1;whiteSpace=wrap;html=1;" parent="WIyWlLk6GJQsqaUBKTNV-1" vertex="1">
          <mxGeometry x="200" y="800" width="120" height="60" as="geometry" />
        </mxCell>
        <mxCell id="nOwS5N5TdgPbAZJw5BMm-14" value="" style="endArrow=classic;html=1;exitX=0.5;exitY=1;exitDx=0;exitDy=0;" parent="WIyWlLk6GJQsqaUBKTNV-1" source="nOwS5N5TdgPbAZJw5BMm-5" target="nOwS5N5TdgPbAZJw5BMm-13" edge="1">
          <mxGeometry width="50" height="50" relative="1" as="geometry">
            <mxPoint x="123.56" y="750" as="sourcePoint" />
            <mxPoint x="173.56" y="700" as="targetPoint" />
          </mxGeometry>
        </mxCell>
        <mxCell id="nOwS5N5TdgPbAZJw5BMm-16" value="store Calibration Data" style="rounded=1;whiteSpace=wrap;html=1;" parent="WIyWlLk6GJQsqaUBKTNV-1" vertex="1">
          <mxGeometry x="170" y="390" width="120" height="45" as="geometry" />
        </mxCell>
        <mxCell id="nOwS5N5TdgPbAZJw5BMm-17" value="" style="endArrow=classic;html=1;exitX=0.5;exitY=1;exitDx=0;exitDy=0;" parent="WIyWlLk6GJQsqaUBKTNV-1" source="WIyWlLk6GJQsqaUBKTNV-7" target="nOwS5N5TdgPbAZJw5BMm-16" edge="1">
          <mxGeometry width="50" height="50" relative="1" as="geometry">
            <mxPoint x="480" y="570" as="sourcePoint" />
            <mxPoint x="530" y="520" as="targetPoint" />
          </mxGeometry>
        </mxCell>
        <mxCell id="nOwS5N5TdgPbAZJw5BMm-18" value="" style="endArrow=classic;html=1;exitX=0.5;exitY=1;exitDx=0;exitDy=0;entryX=0.5;entryY=0;entryDx=0;entryDy=0;" parent="WIyWlLk6GJQsqaUBKTNV-1" source="nOwS5N5TdgPbAZJw5BMm-13" target="nOwS5N5TdgPbAZJw5BMm-12" edge="1">
          <mxGeometry width="50" height="50" relative="1" as="geometry">
            <mxPoint x="123.56" y="750" as="sourcePoint" />
            <mxPoint x="173.56" y="700" as="targetPoint" />
          </mxGeometry>
        </mxCell>
        <mxCell id="nOwS5N5TdgPbAZJw5BMm-20" value="Timed Out?" style="rhombus;whiteSpace=wrap;html=1;direction=south;" parent="WIyWlLk6GJQsqaUBKTNV-1" vertex="1">
          <mxGeometry x="353.56" y="905" width="80" height="80" as="geometry" />
        </mxCell>
        <mxCell id="nOwS5N5TdgPbAZJw5BMm-27" value="&lt;div&gt;Report Play&lt;/div&gt;&lt;div&gt;Success&lt;br&gt;&lt;/div&gt;" style="rounded=1;whiteSpace=wrap;html=1;" parent="WIyWlLk6GJQsqaUBKTNV-1" vertex="1">
          <mxGeometry x="600" y="920" width="90" height="50" as="geometry" />
        </mxCell>
        <mxCell id="nOwS5N5TdgPbAZJw5BMm-28" value="Report Player Fail" style="rounded=1;whiteSpace=wrap;html=1;" parent="WIyWlLk6GJQsqaUBKTNV-1" vertex="1">
          <mxGeometry x="493.61999999999995" y="925" width="80" height="40" as="geometry" />
        </mxCell>
        <mxCell id="nOwS5N5TdgPbAZJw5BMm-37" value="Wrong" style="endArrow=classic;html=1;exitX=1;exitY=0.5;exitDx=0;exitDy=0;" parent="WIyWlLk6GJQsqaUBKTNV-1" source="nOwS5N5TdgPbAZJw5BMm-12" target="nOwS5N5TdgPbAZJw5BMm-20" edge="1">
          <mxGeometry x="-0.178" width="50" height="50" relative="1" as="geometry">
            <mxPoint x="333.56" y="890" as="sourcePoint" />
            <mxPoint x="383.56" y="840" as="targetPoint" />
            <mxPoint as="offset" />
          </mxGeometry>
        </mxCell>
        <mxCell id="nOwS5N5TdgPbAZJw5BMm-39" value="Yes" style="endArrow=classic;html=1;exitX=0.5;exitY=0;exitDx=0;exitDy=0;entryX=0;entryY=0.5;entryDx=0;entryDy=0;" parent="WIyWlLk6GJQsqaUBKTNV-1" source="nOwS5N5TdgPbAZJw5BMm-20" target="nOwS5N5TdgPbAZJw5BMm-28" edge="1">
          <mxGeometry x="-0.3428" width="50" height="50" relative="1" as="geometry">
            <mxPoint x="333.56" y="890" as="sourcePoint" />
            <mxPoint x="383.56" y="840" as="targetPoint" />
            <mxPoint as="offset" />
          </mxGeometry>
        </mxCell>
        <mxCell id="nOwS5N5TdgPbAZJw5BMm-40" value="No" style="endArrow=classic;html=1;entryX=1;entryY=0.5;entryDx=0;entryDy=0;exitX=0;exitY=0.5;exitDx=0;exitDy=0;" parent="WIyWlLk6GJQsqaUBKTNV-1" source="nOwS5N5TdgPbAZJw5BMm-20" target="nOwS5N5TdgPbAZJw5BMm-13" edge="1">
          <mxGeometry x="-0.7778" width="50" height="50" relative="1" as="geometry">
            <mxPoint x="333.56" y="765" as="sourcePoint" />
            <mxPoint x="383.56" y="715" as="targetPoint" />
            <Array as="points">
              <mxPoint x="393.56" y="830" />
            </Array>
            <mxPoint as="offset" />
          </mxGeometry>
        </mxCell>
        <mxCell id="nOwS5N5TdgPbAZJw5BMm-43" value="Correct" style="endArrow=classic;html=1;exitX=0.5;exitY=1;exitDx=0;exitDy=0;entryX=0.5;entryY=0;entryDx=0;entryDy=0;" parent="WIyWlLk6GJQsqaUBKTNV-1" source="nOwS5N5TdgPbAZJw5BMm-12" target="OIZMKwMvLClt6lRkhCav-13" edge="1">
          <mxGeometry x="-0.1429" width="50" height="50" relative="1" as="geometry">
            <mxPoint x="166.56" y="905" as="sourcePoint" />
            <mxPoint x="278.06" y="1017" as="targetPoint" />
            <mxPoint as="offset" />
          </mxGeometry>
        </mxCell>
        <mxCell id="OIZMKwMvLClt6lRkhCav-0" value="calculate flash sequence" style="rounded=1;whiteSpace=wrap;html=1;" parent="WIyWlLk6GJQsqaUBKTNV-1" vertex="1">
          <mxGeometry x="380" y="510" width="120" height="60" as="geometry" />
        </mxCell>
        <mxCell id="OIZMKwMvLClt6lRkhCav-1" value="" style="endArrow=classic;html=1;exitX=0;exitY=0.5;exitDx=0;exitDy=0;entryX=0.5;entryY=0;entryDx=0;entryDy=0;" parent="WIyWlLk6GJQsqaUBKTNV-1" source="OIZMKwMvLClt6lRkhCav-0" target="nOwS5N5TdgPbAZJw5BMm-2" edge="1">
          <mxGeometry width="50" height="50" relative="1" as="geometry">
            <mxPoint x="380.06" y="870" as="sourcePoint" />
            <mxPoint x="240" y="540" as="targetPoint" />
            <Array as="points">
              <mxPoint x="260" y="540" />
            </Array>
          </mxGeometry>
        </mxCell>
        <mxCell id="OIZMKwMvLClt6lRkhCav-3" value="&lt;font style=&quot;font-size: 12px&quot;&gt;Calibration Data present&lt;/font&gt;" style="rhombus;html=1;spacing=2;whiteSpace=wrap;" parent="WIyWlLk6GJQsqaUBKTNV-1" vertex="1">
          <mxGeometry x="377.4800000000001" y="150" width="125.03" height="100" as="geometry" />
        </mxCell>
        <mxCell id="OIZMKwMvLClt6lRkhCav-4" value="" style="endArrow=classic;html=1;entryX=0.5;entryY=0;entryDx=0;entryDy=0;exitX=0.5;exitY=1;exitDx=0;exitDy=0;" parent="WIyWlLk6GJQsqaUBKTNV-1" source="WIyWlLk6GJQsqaUBKTNV-3" target="OIZMKwMvLClt6lRkhCav-3" edge="1">
          <mxGeometry width="50" height="50" relative="1" as="geometry">
            <mxPoint x="440.06" y="140" as="sourcePoint" />
            <mxPoint x="520.06" y="200" as="targetPoint" />
          </mxGeometry>
        </mxCell>
        <mxCell id="OIZMKwMvLClt6lRkhCav-5" value="Yes" style="endArrow=classic;html=1;exitX=0.5;exitY=1;exitDx=0;exitDy=0;" parent="WIyWlLk6GJQsqaUBKTNV-1" source="OIZMKwMvLClt6lRkhCav-3" target="WIyWlLk6GJQsqaUBKTNV-6" edge="1">
          <mxGeometry x="-0.5" width="50" height="50" relative="1" as="geometry">
            <mxPoint x="470.06" y="250" as="sourcePoint" />
            <mxPoint x="520.06" y="200" as="targetPoint" />
            <mxPoint as="offset" />
          </mxGeometry>
        </mxCell>
        <mxCell id="OIZMKwMvLClt6lRkhCav-7" value="" style="endArrow=classic;html=1;entryX=0.5;entryY=0;entryDx=0;entryDy=0;exitX=0;exitY=0.5;exitDx=0;exitDy=0;" parent="WIyWlLk6GJQsqaUBKTNV-1" source="OIZMKwMvLClt6lRkhCav-3" target="WIyWlLk6GJQsqaUBKTNV-7" edge="1">
          <mxGeometry width="50" height="50" relative="1" as="geometry">
            <mxPoint x="400.06" y="250" as="sourcePoint" />
            <mxPoint x="450.06" y="200" as="targetPoint" />
            <Array as="points">
              <mxPoint x="230" y="200" />
            </Array>
          </mxGeometry>
        </mxCell>
        <mxCell id="OIZMKwMvLClt6lRkhCav-11" value="&lt;div&gt;No&lt;/div&gt;" style="edgeLabel;html=1;align=center;verticalAlign=middle;resizable=0;points=[];" parent="OIZMKwMvLClt6lRkhCav-7" vertex="1" connectable="0">
          <mxGeometry x="-0.8795" y="-2" relative="1" as="geometry">
            <mxPoint x="0.97" y="2" as="offset" />
          </mxGeometry>
        </mxCell>
        <mxCell id="OIZMKwMvLClt6lRkhCav-9" value="" style="endArrow=classic;html=1;exitX=0.992;exitY=0.394;exitDx=0;exitDy=0;exitPerimeter=0;entryX=0.5;entryY=0;entryDx=0;entryDy=0;" parent="WIyWlLk6GJQsqaUBKTNV-1" source="nOwS5N5TdgPbAZJw5BMm-16" target="WIyWlLk6GJQsqaUBKTNV-6" edge="1">
          <mxGeometry width="50" height="50" relative="1" as="geometry">
            <mxPoint x="350.06" y="350" as="sourcePoint" />
            <mxPoint x="440.06" y="280" as="targetPoint" />
            <Array as="points">
              <mxPoint x="330.06" y="408" />
              <mxPoint x="330.06" y="290" />
              <mxPoint x="330.06" y="280" />
              <mxPoint x="440" y="280" />
            </Array>
          </mxGeometry>
        </mxCell>
        <mxCell id="OIZMKwMvLClt6lRkhCav-13" value="Read Input" style="rounded=1;whiteSpace=wrap;html=1;" parent="WIyWlLk6GJQsqaUBKTNV-1" vertex="1">
          <mxGeometry x="220" y="1020" width="80" height="40" as="geometry" />
        </mxCell>
        <mxCell id="OIZMKwMvLClt6lRkhCav-23" value="False" style="edgeStyle=orthogonalEdgeStyle;rounded=0;orthogonalLoop=1;jettySize=auto;html=1;exitX=0.5;exitY=0;exitDx=0;exitDy=0;" parent="WIyWlLk6GJQsqaUBKTNV-1" source="OIZMKwMvLClt6lRkhCav-17" target="nOwS5N5TdgPbAZJw5BMm-28" edge="1">
          <mxGeometry x="0.1989" relative="1" as="geometry">
            <mxPoint as="offset" />
          </mxGeometry>
        </mxCell>
        <mxCell id="OIZMKwMvLClt6lRkhCav-17" value="Input Correct" style="rhombus;whiteSpace=wrap;html=1;" parent="WIyWlLk6GJQsqaUBKTNV-1" vertex="1">
          <mxGeometry x="483.59" y="995" width="100.06" height="90" as="geometry" />
        </mxCell>
        <mxCell id="OIZMKwMvLClt6lRkhCav-19" value="" style="endArrow=classic;html=1;exitX=1;exitY=0.5;exitDx=0;exitDy=0;entryX=0;entryY=0.5;entryDx=0;entryDy=0;" parent="WIyWlLk6GJQsqaUBKTNV-1" source="OIZMKwMvLClt6lRkhCav-13" target="OIZMKwMvLClt6lRkhCav-17" edge="1">
          <mxGeometry width="50" height="50" relative="1" as="geometry">
            <mxPoint x="390.06" y="1040" as="sourcePoint" />
            <mxPoint x="440.06" y="990" as="targetPoint" />
          </mxGeometry>
        </mxCell>
        <mxCell id="OIZMKwMvLClt6lRkhCav-25" value="" style="endArrow=classic;html=1;exitX=0.5;exitY=0;exitDx=0;exitDy=0;entryX=1;entryY=0.5;entryDx=0;entryDy=0;" parent="WIyWlLk6GJQsqaUBKTNV-1" source="nOwS5N5TdgPbAZJw5BMm-28" target="OIZMKwMvLClt6lRkhCav-0" edge="1">
          <mxGeometry width="50" height="50" relative="1" as="geometry">
            <mxPoint x="533.6199999999999" y="750" as="sourcePoint" />
            <mxPoint x="524" y="620" as="targetPoint" />
            <Array as="points">
              <mxPoint x="534" y="540" />
            </Array>
          </mxGeometry>
        </mxCell>
        <mxCell id="tKOiq6pVQDYrRC9kV3IF-3" style="edgeStyle=orthogonalEdgeStyle;rounded=0;orthogonalLoop=1;jettySize=auto;html=1;exitX=0.5;exitY=1;exitDx=0;exitDy=0;entryX=0.5;entryY=0;entryDx=0;entryDy=0;" parent="WIyWlLk6GJQsqaUBKTNV-1" source="tKOiq6pVQDYrRC9kV3IF-0" target="nOwS5N5TdgPbAZJw5BMm-5" edge="1">
          <mxGeometry relative="1" as="geometry" />
        </mxCell>
        <mxCell id="tKOiq6pVQDYrRC9kV3IF-0" value="Show Flashsequence" style="rounded=1;whiteSpace=wrap;html=1;" parent="WIyWlLk6GJQsqaUBKTNV-1" vertex="1">
          <mxGeometry x="200" y="640" width="120" height="60" as="geometry" />
        </mxCell>
        <mxCell id="VRJIx6MPrOvrtmKDiOfs-2" value="" style="endArrow=classic;html=1;exitX=0.5;exitY=0;exitDx=0;exitDy=0;entryX=1;entryY=0.5;entryDx=0;entryDy=0;" edge="1" parent="WIyWlLk6GJQsqaUBKTNV-1" source="nOwS5N5TdgPbAZJw5BMm-27" target="OIZMKwMvLClt6lRkhCav-0">
          <mxGeometry width="50" height="50" relative="1" as="geometry">
            <mxPoint x="390" y="700" as="sourcePoint" />
            <mxPoint x="440" y="650" as="targetPoint" />
            <Array as="points">
              <mxPoint x="645" y="540" />
            </Array>
          </mxGeometry>
        </mxCell>
        <mxCell id="VRJIx6MPrOvrtmKDiOfs-3" value="True" style="endArrow=classic;html=1;exitX=1;exitY=0.5;exitDx=0;exitDy=0;entryX=0.5;entryY=1;entryDx=0;entryDy=0;" edge="1" parent="WIyWlLk6GJQsqaUBKTNV-1" source="OIZMKwMvLClt6lRkhCav-17" target="nOwS5N5TdgPbAZJw5BMm-27">
          <mxGeometry x="-0.5988" width="50" height="50" relative="1" as="geometry">
            <mxPoint x="390" y="700" as="sourcePoint" />
            <mxPoint x="440" y="650" as="targetPoint" />
            <Array as="points">
              <mxPoint x="645" y="1040" />
            </Array>
            <mxPoint as="offset" />
          </mxGeometry>
        </mxCell>
      </root>
    </mxGraphModel>
  </diagram>
</mxfile>
